<svg xmlns="http://www.w3.org/2000/svg" viewBox="0 0 250 420"><defs><style>.cls-1{fill:#c1272d;}.cls-2{fill:#fff;}</style></defs><title>MarqueursHD</title><g id="marqueurs"><path class="cls-1" d="M125,400.84C107.2,364.12,29.12,203.08,21.4,187.59,9.85,164.45,4,143.39,4,125a121,121,0,0,1,242,0c0,22-9.7,45.65-18.14,63.81C221.27,203,142.88,364.11,125,400.84Z"/><path class="cls-2" d="M125,8A117,117,0,0,1,242,125c0,21.21-9.5,44.34-17.77,62.12C218,200.44,148,344.55,125,391.69,102.16,344.54,32.27,200.43,25,185.81,13.71,163.22,8,142.76,8,125A117,117,0,0,1,125,8m0-8A125,125,0,0,0,0,125c0,23.54,9.05,46.8,17.82,64.38S125,410,125,410s99-203.39,106.48-219.51S250,149,250,125A125,125,0,0,0,125,0Z"/></g><g id="bar"><path class="cls-2" d="M97.91,150.49a4.49,4.49,0,0,0-4.5,4.5v35.33a4.5,4.5,0,0,0,9,0V155A4.49,4.49,0,0,0,97.91,150.49Z"/><path class="cls-2" d="M132,150.49a4.5,4.5,0,0,0-4.51,4.5v35.33a4.51,4.51,0,0,0,9,0V155A4.5,4.5,0,0,0,132,150.49Z"/><path class="cls-2" d="M171,116.72H165.8v-5.13a21.91,21.91,0,0,0-16-33A21.91,21.91,0,0,0,112.28,68a21.86,21.86,0,0,0-25.9,10.71,21.91,21.91,0,0,0-25.46,21.62,21.75,21.75,0,0,0,3.16,11.31v82.78a27,27,0,0,0,27,27h47.71a27,27,0,0,0,26.79-23.64H171a18,18,0,0,0,18-18v-45A18,18,0,0,0,171,116.72ZM82.83,87.37a12.89,12.89,0,0,1,4.6.85,4.5,4.5,0,0,0,5.93-3A13,13,0,0,1,105.76,76a12.72,12.72,0,0,1,5.9,1.43,4.51,4.51,0,0,0,5.84-1.55,12.9,12.9,0,0,1,23.72,7v.11a4.5,4.5,0,0,0,4.84,4.49c.38,0,.7,0,1,0a12.91,12.91,0,0,1,0,25.82H108.82a4.51,4.51,0,0,0-4.5,4.5V134.2a4.48,4.48,0,1,1-9,0V117.69a4.5,4.5,0,0,0-4.5-4.5h-8a12.91,12.91,0,0,1,0-25.82Zm74,107a18,18,0,0,1-18,18H91.08a18,18,0,0,1-18-18V119.89a21.74,21.74,0,0,0,9.75,2.3h3.53v12a13.49,13.49,0,1,0,27,0v-12H147a21.75,21.75,0,0,0,9.76-2.3v74.48ZM180,179.75a9,9,0,0,1-9,9H165.8v-63H171a9,9,0,0,1,9,9Z"/></g></svg>