<svg xmlns="http://www.w3.org/2000/svg" viewBox="0 0 250 420"><defs><style>.cls-1{fill:#c1272d;}.cls-2{fill:#fff;}</style></defs><title>MarqueursHD</title><g id="marqueurs"><path class="cls-1" d="M125,400.84C107.2,364.12,29.12,203.07,21.4,187.59,9.85,164.45,4,143.39,4,125a121,121,0,0,1,242,0c0,22-9.7,45.65-18.14,63.81C221.27,203,142.88,364.11,125,400.84Z"/><path class="cls-2" d="M125,8A117,117,0,0,1,242,125c0,21.21-9.5,44.34-17.77,62.12C218,200.44,148,344.55,125,391.69,102.16,344.54,32.27,200.43,25,185.81,13.71,163.22,8,142.76,8,125A117,117,0,0,1,125,8m0-8A125,125,0,0,0,0,125c0,23.54,9.05,46.8,17.82,64.38S125,410,125,410s99-203.39,106.48-219.51S250,149,250,125A125,125,0,0,0,125,0Z"/></g><g id="brunch"><path class="cls-2" d="M112.33,111.08A32.94,32.94,0,1,0,145.27,144,32.94,32.94,0,0,0,112.33,111.08Zm0,60.8A27.87,27.87,0,1,1,140.2,144,27.86,27.86,0,0,1,112.33,171.88Z"/><path class="cls-2" d="M112.33,121.22A22.83,22.83,0,0,0,89.53,144a2.54,2.54,0,0,0,5.07,0,17.75,17.75,0,0,1,17.73-17.74,2.53,2.53,0,1,0,0-5.06Z"/><path class="cls-2" d="M196.05,148.72a60.69,60.69,0,0,1-6.6-28.16,52.34,52.34,0,0,0-1.38-13.49,50.88,50.88,0,0,0-44-38.84,49.27,49.27,0,0,0-35.79,10.88,253,253,0,0,1-33.81,22,51.25,51.25,0,0,0,11.63,93.55h0a47.06,47.06,0,0,0,6.1,1.34,60,60,0,0,1,29.49,12.88A47.78,47.78,0,0,0,152.4,220c1,0,2.07,0,3.11-.1a49.25,49.25,0,0,0,45.31-45.15A50.31,50.31,0,0,0,196.05,148.72Zm-.28,25.62a44.17,44.17,0,0,1-40.59,40.52A42.8,42.8,0,0,1,124.92,205a65,65,0,0,0-32-14,42.39,42.39,0,0,1-5.45-1.2A46.19,46.19,0,0,1,77,105.49,257.93,257.93,0,0,0,111.47,83a44.25,44.25,0,0,1,32.12-9.76,45.72,45.72,0,0,1,39.54,35,47.1,47.1,0,0,1,1.26,12.18,65.66,65.66,0,0,0,7.1,30.52A45.21,45.21,0,0,1,195.77,174.34Z"/></g></svg>