<svg xmlns="http://www.w3.org/2000/svg" viewBox="0 0 250 420"><defs><style>.cls-1{fill:#c1272d;}.cls-2{fill:#fff;}</style></defs><title>MarqueursHD</title><g id="marqueurs"><path class="cls-1" d="M125,400.84C107.2,364.12,29.12,203.07,21.4,187.59,9.85,164.45,4,143.39,4,125a121,121,0,0,1,242,0c0,22-9.7,45.65-18.14,63.81C221.27,203,142.88,364.11,125,400.84Z"/><path class="cls-2" d="M125,8A117,117,0,0,1,242,125c0,21.21-9.5,44.34-17.77,62.12C218,200.44,148,344.55,125,391.69,102.16,344.54,32.27,200.43,25,185.81,13.71,163.22,8,142.76,8,125A117,117,0,0,1,125,8m0-8A125,125,0,0,0,0,125c0,23.54,9.05,46.8,17.82,64.38S125,410,125,410s99-203.39,106.48-219.51S250,149,250,125A125,125,0,0,0,125,0Z"/></g><g id="cafe"><path class="cls-2" d="M169.81,106.36H70.06a10.71,10.71,0,0,0-10.69,10.69v7.12A67.54,67.54,0,0,0,96,184.35,3.57,3.57,0,0,0,99.29,178,60.42,60.42,0,0,1,66.5,124.17v-7.12a3.56,3.56,0,0,1,3.56-3.56h99.75a3.56,3.56,0,0,1,3.56,3.56v7.12A60.37,60.37,0,0,1,140.58,178a3.57,3.57,0,1,0,3.27,6.34,67.5,67.5,0,0,0,36.65-60.17v-7.12A10.71,10.71,0,0,0,169.81,106.36Z"/><path class="cls-2" d="M201.61,179.81a3.55,3.55,0,0,0-3.29-2.2H41.57A3.56,3.56,0,0,0,39,183.69l8,8A24.8,24.8,0,0,0,64.67,199H175.21a24.81,24.81,0,0,0,17.64-7.31l8-8A3.54,3.54,0,0,0,201.61,179.81Zm-13.8,6.84a17.71,17.71,0,0,1-12.6,5.21H64.67a17.71,17.71,0,0,1-12.6-5.21l-1.91-1.91H189.72Z"/><path class="cls-2" d="M202.11,123.18c-9.6-6.17-24.93.53-26.65,1.31a3.57,3.57,0,1,0,3,6.49c3.43-1.56,14.45-5.26,19.84-1.79,2.43,1.56,3.61,4.59,3.61,9.23,0,14.27-28.77,22.89-39.87,25l-2.53.5a3.56,3.56,0,0,0,.69,7.06,3.4,3.4,0,0,0,.69-.08l2.5-.49c1.87-.35,45.65-8.94,45.65-32C209,131.26,206.68,126.13,202.11,123.18Z"/><path class="cls-2" d="M147.67,76.52a21.32,21.32,0,0,0,0-25.81,3.56,3.56,0,1,0-5.56,4.45c3.67,4.58,3.67,12.33,0,16.92a21.33,21.33,0,0,0,0,25.82,3.57,3.57,0,0,0,2.79,1.34,3.58,3.58,0,0,0,2.78-5.8C144,88.86,144,81.12,147.67,76.52Z"/><path class="cls-2" d="M126.27,76.52a21.32,21.32,0,0,0,0-25.81,3.56,3.56,0,1,0-5.56,4.45c3.67,4.58,3.67,12.33,0,16.92a21.36,21.36,0,0,0,0,25.82,3.56,3.56,0,0,0,5.56-4.46C122.59,88.86,122.59,81.12,126.27,76.52Z"/><path class="cls-2" d="M104.92,76.53a21.33,21.33,0,0,0,0-25.82,3.56,3.56,0,0,0-5.56,4.45c3.67,4.58,3.67,12.33,0,16.92a21.33,21.33,0,0,0,0,25.82,3.56,3.56,0,0,0,5.57-4.45A14.35,14.35,0,0,1,104.92,76.53Z"/></g></svg>