<?xml version="1.0" encoding="utf-8"?>
<!-- Generator: Adobe Illustrator 22.0.1, SVG Export Plug-In . SVG Version: 6.00 Build 0)  -->
<svg version="1.1" id="Capa_1" xmlns="http://www.w3.org/2000/svg" xmlns:xlink="http://www.w3.org/1999/xlink" x="0px" y="0px"
	 viewBox="0 0 188.1 260.1" style="enable-background:new 0 0 188.1 260.1;" xml:space="preserve">
<g>
	<path d="M94.1,72C42.2,72,0,114.2,0,166.1c0,51.9,42.2,94.1,94.1,94.1c51.9,0,94.1-42.2,94.1-94.1C188.1,114.2,145.9,72,94.1,72z
		 M94.1,245.1c-43.6,0-79.1-35.5-79.1-79.1C15,122.5,50.5,87,94.1,87c43.6,0,79.1,35.5,79.1,79.1
		C173.1,209.6,137.6,245.1,94.1,245.1z"/>
	<rect x="86.6" y="195.3" width="15" height="29.2"/>
	<rect x="86.6" y="107.6" width="15" height="29.2"/>
	<rect x="123.3" y="158.6" width="29.2" height="15"/>
	<rect x="35.6" y="158.6" width="29.2" height="15"/>
</g>
</svg>
