<svg xmlns="http://www.w3.org/2000/svg" viewBox="0 0 250 420"><defs><style>.cls-1{fill:#2171b5;}.cls-2{fill:#fff;}</style></defs><title>MarqueursHD</title><g id="marqueurs"><path class="cls-1" d="M125,400.84C107.2,364.12,29.12,203.08,21.4,187.59,9.85,164.45,4,143.39,4,125a121,121,0,0,1,242,0c0,22-9.7,45.65-18.14,63.81C221.27,203,142.88,364.11,125,400.84Z"/><path class="cls-2" d="M125,8A117,117,0,0,1,242,125c0,21.21-9.5,44.34-17.77,62.12C218,200.44,148,344.55,125,391.69,102.16,344.54,32.27,200.43,25,185.81,13.71,163.22,8,142.76,8,125A117,117,0,0,1,125,8m0-8A125,125,0,0,0,0,125c0,23.54,9.05,46.8,17.82,64.38S125,410,125,410s99-203.39,106.48-219.51S250,149,250,125A125,125,0,0,0,125,0Z"/></g><g id="hotel"><path class="cls-2" d="M112.59,180.87H70.67l45.82-46.08a5.5,5.5,0,0,0-3.9-9.38H57.44a5.5,5.5,0,0,0,0,11H99.36L53.54,182.49a5.51,5.51,0,0,0,3.9,9.38h55.15a5.5,5.5,0,1,0,0-11Z"/><path class="cls-2" d="M193.5,144.77H139.05L197.4,86.09a5.5,5.5,0,0,0-3.9-9.38H125.82a5.5,5.5,0,0,0,0,11h54.45l-58.35,58.68a5.5,5.5,0,0,0,3.9,9.38H193.5a5.5,5.5,0,0,0,0-11Z"/><path class="cls-2" d="M142.06,234.94H119l25.23-25.36a3,3,0,0,0-2.15-5.17H111.7a3,3,0,1,0,0,6.06h23.08l-25.22,25.37A3,3,0,0,0,111.7,241h30.36a3,3,0,0,0,0-6.06Z"/></g></svg>