<svg xmlns="http://www.w3.org/2000/svg" viewBox="0 0 250 420"><defs><style>.cls-1{fill:#c1272d;}.cls-2{fill:#fff;}</style></defs><title>MarqueursHD</title><g id="marqueurs"><path class="cls-1" d="M125,400.84C107.2,364.12,29.12,203.07,21.4,187.59,9.85,164.45,4,143.39,4,125a121,121,0,0,1,242,0c0,22-9.7,45.65-18.14,63.81C221.27,203,142.88,364.11,125,400.84Z"/><path class="cls-2" d="M125,8A117,117,0,0,1,242,125c0,21.21-9.5,44.34-17.77,62.12C218,200.44,148,344.55,125,391.69,102.16,344.54,32.27,200.43,25,185.81,13.71,163.22,8,142.76,8,125A117,117,0,0,1,125,8m0-8A125,125,0,0,0,0,125c0,23.54,9.05,46.8,17.82,64.38S125,410,125,410s99-203.39,106.48-219.51S250,149,250,125A125,125,0,0,0,125,0Z"/></g><g id="restau"><path class="cls-2" d="M160.74,38.07h0a11.32,11.32,0,0,0-11.15,9.67L133.16,162.59a10.73,10.73,0,0,0,8,11.95l5.5,1.38-3,59.14a14.15,14.15,0,0,0,14.12,14.85A14.16,14.16,0,0,0,172,235.77V49.34A11.27,11.27,0,0,0,160.74,38.07Zm4.4,197.7h0a7.29,7.29,0,0,1-7.28,7.27,7.27,7.27,0,0,1-7.26-7.63l3.09-62a3.43,3.43,0,0,0-2.59-3.5l-8.24-2.06a3.86,3.86,0,0,1-2.9-4.32l16.4-114.85a4.43,4.43,0,0,1,4.36-3.78h0a4.42,4.42,0,0,1,4.4,4.41V235.77Z"/><path class="cls-2" d="M117.09,41.33a3.43,3.43,0,0,0-6.85.34l2.93,58.62H102.46V41.5a3.44,3.44,0,0,0-6.87,0v58.8H84.88l2.93-58.63A3.43,3.43,0,0,0,81,41.33L77.5,110.38a10.79,10.79,0,0,0,4.78,9.49l4.14,2.76A3.85,3.85,0,0,1,88.15,126L84.92,235.4a14.11,14.11,0,1,0,28.21,0L109.89,126a3.87,3.87,0,0,1,1.73-3.35l4.15-2.76a10.8,10.8,0,0,0,4.77-9.49ZM112,114.16l-4.14,2.76a10.69,10.69,0,0,0-4.79,9.27l3.24,109.4a7.25,7.25,0,1,1-14.49,0L95,126.19a10.68,10.68,0,0,0-4.78-9.27l-4.14-2.76a3.9,3.9,0,0,1-1.73-3.43l.18-3.57h29l.18,3.57A3.9,3.9,0,0,1,112,114.16Z"/></g></svg>