<svg xmlns="http://www.w3.org/2000/svg" viewBox="0 0 250 420"><defs><style>.cls-1{fill:#25ab5d;}.cls-2{fill:#fff;}</style></defs><title>MarqueursHD</title><g id="marqueurs"><path class="cls-1" d="M125.18,399.84c-17.75-36.62-95.4-196.77-103.09-212.17-11.48-23-17.31-44-17.31-62.28a120.39,120.39,0,0,1,240.78,0c0,21.88-9.65,45.42-18.05,63.49C221,203,143,363.22,125.18,399.84Z"/><path class="cls-2" d="M125.17,9A116.39,116.39,0,0,1,241.56,125.39c0,21.1-9.45,44.11-17.68,61.8-6.16,13.25-75.84,156.51-98.7,203.5-22.78-47-92.25-190.27-99.51-204.81C14.46,163.42,8.78,143.06,8.78,125.39A116.39,116.39,0,0,1,125.17,9m0-8A124.39,124.39,0,0,0,.78,125.39c0,23.43,9,46.57,17.74,64.07S125.17,409,125.17,409s98.5-202.4,106-218.44,18.42-41.27,18.42-65.17A124.39,124.39,0,0,0,125.17,1Z"/></g><g id="visite"><path class="cls-2" d="M45,105.12v69.51a19.24,19.24,0,0,0,19.22,19.22H183.3a19.23,19.23,0,0,0,19.22-19.22V105.12a18.3,18.3,0,0,0-18.29-18.29H158.64L158,84.16A23.37,23.37,0,0,0,135.14,66H112.35A23.43,23.43,0,0,0,89.46,84.16l-.61,2.67H63.29A18.32,18.32,0,0,0,45,105.12ZM92,94.71a3.91,3.91,0,0,0,3.82-3.06l1.32-5.72a15.55,15.55,0,0,1,15.21-12.05h22.79a15.55,15.55,0,0,1,15.21,12.05l1.31,5.72a4,4,0,0,0,3.83,3.06H184.2a10.41,10.41,0,0,1,10.41,10.41v69.51A11.34,11.34,0,0,1,183.27,186h-119a11.34,11.34,0,0,1-11.34-11.34V105.12A10.41,10.41,0,0,1,63.29,94.71Z"/><circle class="cls-2" cx="71.65" cy="111.52" r="5.27"/><path class="cls-2" d="M123.76,173.63a33.08,33.08,0,1,0-33.08-33.08A33.13,33.13,0,0,0,123.76,173.63Zm0-58.28a25.2,25.2,0,1,1-25.2,25.2A25.24,25.24,0,0,1,123.76,115.35Z"/></g></svg>